Coordinates
version=1
nRows=29
nColumns=24
inDegrees=yes

Units are S.I. units (second, meters, Newtons, ...)
Angles are in degrees.

endheader
time	pelvis_tilt	pelvis_list	pelvis_rotation	pelvis_tx	pelvis_ty	pelvis_tz	hip_flexion_r	hip_adduction_r	hip_rotation_r	knee_angle_r	ankle_angle_r	subtalar_angle_r	mtp_angle_r	hip_flexion_l	hip_adduction_l	hip_rotation_l	knee_angle_l	ankle_angle_l	subtalar_angle_l	mtp_angle_l	lumbar_extension	lumbar_bending	lumbar_rotation
      0.44100000	     -3.91144783	      3.91898846	     -1.25422186	     -0.77389755	      1.05241392	      0.29012778	     25.53834607	     -1.10679156	     -8.31503322	     -1.71687102	      2.34278704	     -1.44920768	      0.03983699	     -6.67185800	      8.46497627	      2.79465185	     -6.07558058	      9.73480350	     -6.60768976	      0.11193559	      3.71141123	     -0.98026853	     -0.77718833
      0.44516667	     -3.89098111	      3.91021211	     -1.23556330	     -0.76829189	      1.05191595	      0.29012762	     25.50173194	     -1.05836480	     -8.16301771	     -1.91348140	      2.33382076	     -1.30777947	      0.04807805	     -6.75235351	      8.45911363	      2.80937928	     -6.63009509	      9.69859948	     -6.63903554	      0.10729659	      3.69747249	     -1.02189557	     -0.81546106
      0.44933333	     -3.84251993	      3.90457768	     -1.46090164	     -0.76251400	      1.05135695	      0.29040615	     25.48133513	     -0.91980015	     -7.79566018	     -2.25171237	      2.53185112	     -0.73981965	      0.09755317	     -6.87501500	      8.48874009	      2.55808587	     -7.15750759	      9.90573980	     -6.59050916	      0.09311984	      3.62625468	     -1.08942212	     -1.02928912
      0.45350000	     -3.82032418	      3.84505279	     -1.42603182	     -0.75667445	      1.05092478	      0.29035504	     25.42488294	     -0.83383422	     -7.63475379	     -2.56708310	      2.53532128	     -0.65491799	      0.10609266	     -6.93225298	      8.42102926	      2.54425371	     -7.79411492	      9.91458640	     -6.58422123	      0.09227917	      3.66032542	     -1.02005014	     -1.05137943
      0.45766667	     -3.83770500	      3.79927884	     -1.55926404	     -0.75073062	      1.05036413	      0.29061299	     25.43439210	     -0.68334054	     -7.20329192	     -2.97083882	      2.66348154	     -0.35681288	      0.14229956	     -6.92237597	      8.37812474	      2.21649869	     -8.47792941	     10.16450086	     -6.38985851	      0.09734961	      3.56162053	     -0.87025096	     -1.15346679
      0.46183333	     -3.77682161	      3.76291679	     -1.71111256	     -0.74483783	      1.04993323	      0.29094560	     25.37120909	     -0.53650178	     -6.76040901	     -3.43045761	      2.78567084	     -0.10877428	      0.19730557	     -6.95995682	      8.33911771	      1.79328114	     -9.22721832	     10.40932520	     -5.89818397	      0.11268664	      3.58248877	     -0.88050335	     -1.19747912
      0.46600000	     -3.73717377	      3.70555026	     -1.79090687	     -0.73886580	      1.04955032	      0.29126417	     25.29912734	     -0.38935191	     -6.31964284	     -3.88717488	      2.80007145	     -0.14304561	      0.30113337	     -6.94951675	      8.25138029	      1.43828739	    -10.04533939	     10.69570046	     -5.09261290	      0.15248162	      3.67220748	     -0.86092506	     -1.16350034
      0.47016667	     -3.66796158	      3.64748430	     -1.76136830	     -0.73293900	      1.04927863	      0.29115604	     25.20097277	     -0.32317139	     -6.12418488	     -4.39122239	      2.74833739	     -0.10857670	      0.31050357	     -6.95479194	      8.17456550	      1.40176376	    -10.89215880	     10.66139020	     -5.08026598	      0.15637837	      3.70873534	     -0.74922134	     -1.17544639
      0.47433333	     -3.62933291	      3.59450284	     -1.99001904	     -0.72692304	      1.04888153	      0.29183114	     25.13658819	     -0.10742681	     -5.40372099	     -4.89214044	      2.66334838	     -0.14669442	      0.40863677	     -6.87579165	      8.08081727	      0.69863453	    -11.82415617	     10.85031075	     -4.25834994	      0.22744868	      3.64129843	     -0.71794043	     -1.17469832
      0.47850000	     -3.54243140	      3.53486592	     -1.94374527	     -0.72097622	      1.04871185	      0.29168862	     25.01035423	     -0.05398908	     -5.22439381	     -5.42795756	      2.60232238	     -0.13464191	      0.41924087	     -6.83324980	      7.98886449	      0.62903334	    -12.80352499	     10.79616075	     -4.21940745	      0.23573488	      3.67088025	     -0.58874876	     -1.18268503
      0.48266667	     -3.53304464	      3.46538776	     -2.13473365	     -0.71492592	      1.04837181	      0.29253579	     24.94871523	      0.18469453	     -4.47492115	     -5.91706598	      2.38084982	     -0.49562334	      0.55062709	     -6.64662659	      7.82789771	     -0.16028671	    -13.89226816	     10.94124557	     -2.95092518	      0.38489304	      3.62240744	     -0.56440902	     -1.12197744
      0.48683333	     -3.46414531	      3.39283103	     -2.18195273	     -0.70893596	      1.04821582	      0.29289244	     24.82248812	      0.32672813	     -4.06049353	     -6.43238317	      2.15430141	     -0.82315450	      0.67579349	     -6.50016601	      7.67276615	     -0.59415270	    -15.02912352	     10.91525995	     -2.30308047	      0.54100373	      3.54476396	     -0.44818242	     -1.07613728
      0.49100000	     -3.40517638	      3.31023249	     -2.22837177	     -0.70290396	      1.04809250	      0.29328076	     24.69604506	      0.48077690	     -3.65120625	     -6.94231376	      1.95865646	     -1.22204201	      0.86614064	     -6.31109793	      7.49184200	     -1.06000703	    -16.23598314	     10.94739989	     -1.63007273	      0.81181345	      3.52299763	     -0.33077337	     -1.02343583
      0.49516667	     -3.35042762	      3.21885026	     -2.19949440	     -0.69687018	      1.04803396	      0.29333174	     24.57796051	      0.58203907	     -3.47746066	     -7.47673314	      1.83260786	     -1.18150123	      0.89284058	     -6.08699989	      7.31133647	     -1.35487347	    -17.48966518	     10.71101998	     -1.49844543	      0.85040797	      3.42407894	     -0.18599962	     -1.05023745
      0.49933333	     -3.26254913	      3.17903873	     -2.33964683	     -0.69094687	      1.04795603	      0.29375991	     24.45937142	      0.70972450	     -3.07444864	     -8.04393671	      1.55715911	     -1.33681993	      0.96428786	     -5.85925569	      7.17909371	     -1.87897286	    -18.77260103	     10.24855830	     -0.73552295	      0.98434894	      3.39034555	     -0.07915929	     -1.07681554
      0.50350000	     -3.21394031	      3.04594416	     -2.35579744	     -0.68482601	      1.04796292	      0.29443414	     24.28459154	      0.92715225	     -2.59764538	     -8.46891497	      1.26476763	     -2.05781462	      1.15361404	     -5.55014283	      6.86751979	     -2.45571658	    -20.19775498	     10.25398454	      0.25633703	      1.39904975	      3.42668454	     -0.02408627	     -1.01376477
      0.50766667	     -3.14392900	      2.97983798	     -2.36723510	     -0.67892112	      1.04798376	      0.29461194	     24.15998028	      1.01280551	     -2.39610506	     -9.01465470	      1.08014428	     -2.11145710	      1.21981546	     -5.22498698	      6.67942733	     -2.81003446	    -21.62829490	      9.71761876	      0.64074917	      1.54485555	      3.31506482	      0.12677222	     -1.03314496
      0.51183333	     -3.07626046	      2.88099511	     -2.38407326	     -0.67293672	      1.04804877	      0.29493249	     24.01018648	      1.14544680	     -2.16991443	     -9.52351541	      0.89486551	     -2.30661186	      1.29014605	     -4.86541152	      6.42800805	     -3.23848596	    -23.12373447	      9.19401594	      1.18378845	      1.72523080	      3.25303328	      0.26500182	     -1.04652612
      0.51600000	     -2.98799148	      2.72161123	     -2.33271453	     -0.66683688	      1.04822690	      0.29515412	     23.80230812	      1.30751290	     -2.07793562	     -9.98807809	      0.79752852	     -2.33702785	      1.31466665	     -4.50429660	      6.09631861	     -3.61048259	    -24.68670134	      8.88161720	      1.35926984	      1.79041435	      3.16525390	      0.37084125	     -1.05461747
      0.52016667	     -2.91280806	      2.65761098	     -2.36761246	     -0.66104339	      1.04830375	      0.29552822	     23.66087145	      1.40393930	     -1.82144600	    -10.51192915	      0.58671630	     -2.68237003	      1.37670174	     -4.07235739	      5.86274328	     -3.99187548	    -26.27354118	      8.03125336	      2.14997241	      1.98834138	      3.09128546	      0.54823465	     -1.07090124
      0.52433333	     -2.85031004	      2.51000091	     -2.34536726	     -0.65506107	      1.04845450	      0.29595445	     23.47669319	      1.57657648	     -1.63875892	    -10.95936691	      0.40668065	     -3.04645828	      1.44680421	     -3.60806683	      5.50770965	     -4.37374369	    -27.92708078	      7.40212365	      2.71512106	      2.23260453	      3.04416777	      0.70810763	     -1.07045918
      0.52850000	     -2.75222136	      2.32642972	     -2.32093866	     -0.64901251	      1.04868016	      0.29624066	     23.24524658	      1.76468752	     -1.60439706	    -11.39702066	      0.32634521	     -3.07989709	      1.47061912	     -3.16403758	      5.12352004	     -4.73313465	    -29.62310761	      7.02716329	      2.86537735	      2.31259672	      2.95770412	      0.81740991	     -1.07417127
      0.53266667	     -2.68111633	      2.18114542	     -2.28687483	     -0.64313170	      1.04886415	      0.29659539	     23.04965093	      1.91550193	     -1.51855579	    -11.83539941	      0.15515308	     -3.50975291	      1.55217049	     -2.64582356	      4.76420194	     -5.01056322	    -31.32873663	      5.97328401	      3.53267544	      2.63337056	      2.99208878	      0.99469077	     -1.05901328
      0.53683333	     -2.60399873	      2.00107883	     -2.27174790	     -0.63725133	      1.04905318	      0.29691341	     22.83795614	      2.09898619	     -1.45993193	    -12.25705488	      0.09036074	     -3.51502203	      1.57600038	     -2.11153437	      4.37065445	     -5.30322690	    -33.10102866	      5.56118860	      3.65081393	      2.72050568	      2.81843836	      1.18931685	     -1.08060534
      0.54100000	     -2.54277121	      1.83476431	     -2.20184654	     -0.63142185	      1.04925704	      0.29709812	     22.63484396	      2.23854256	     -1.50850048	    -12.65989682	     -0.01359203	     -3.85280884	      1.65868907	     -1.52908505	      3.99572967	     -5.46417802	    -34.85364854	      4.42831179	      4.10722424	      3.06870900	      2.85397556	      1.42387358	     -1.06540149
      0.54516667	     -2.48917743	      1.65747858	     -2.14984199	     -0.62569209	      1.04942774	      0.29731093	     22.43666343	      2.39497625	     -1.51051090	    -13.05015387	     -0.07224718	     -3.98342048	      1.72487543	     -0.90812982	      3.60805856	     -5.61622143	    -36.65501799	      3.66659028	      4.29678933	      3.34808480	      2.73059754	      1.71101185	     -1.08177755
      0.54933333	     -2.42406655	      1.44642206	     -2.09487827	     -0.61984537	      1.04966426	      0.29747640	     22.20022409	      2.57847191	     -1.63518640	    -13.39629101	     -0.10994839	     -4.10522648	      1.80993282	     -0.29831278	      3.19010476	     -5.74795864	    -38.43451713	      2.82355075	      4.42595792	      3.71325640	      2.71418647	      1.93286132	     -1.07292594
      0.55350000	     -2.32308554	      1.22836613	     -2.11882737	     -0.61408777	      1.04993014	      0.29784865	     21.91704247	      2.80676613	     -1.60429391	    -13.71445414	     -0.13068164	     -4.03338859	      1.83060375	      0.28458035	      2.75730472	     -5.93925576	    -40.23626835	      2.45120977	      4.44829239	      3.78974757	      2.56004463	      2.10237016	     -1.08479371
      0.55766667	     -2.28487008	      1.01875830	     -1.98185034	     -0.60839971	      1.05016573	      0.29775093	     21.69551058	      2.94242499	     -1.87320728	    -14.03273478	     -0.07898375	     -4.15539130	      1.90036101	      0.97738767	      2.36765752	     -5.87647223	    -42.00825103	      1.40098408	      4.54446277	      4.08216735	      2.54217793	      2.47947558	     -1.07211952
